<?xml version="1.0" encoding="utf-8"?>
<!-- Generator: Adobe Illustrator 27.9.0, SVG Export Plug-In . SVG Version: 6.00 Build 0)  -->
<svg version="1.1" id="Layer_1" xmlns="http://www.w3.org/2000/svg" xmlns:xlink="http://www.w3.org/1999/xlink" x="0px" y="0px"
	 viewBox="0 0 128 128" style="enable-background:new 0 0 128 128;" xml:space="preserve">
<style type="text/css">
	.st0{fill:#58595B;}
	.st1{fill:#F1F2F2;}
	.st2{font-family:'Impact';}
	.st3{font-size:10.3222px;}
</style>
<g>
	<g>
		<g>
			<path class="st0" d="M33.68,55.28c0.24-0.8,0.36-1.64,0.36-2.51c0-0.9-0.14-1.78-0.4-2.62c-0.31-1,0.95-1.23,0.95-1.23
				c1.69-0.35,3.33-0.76,4.73-1.15l0-6.79l-3.3-3.3c-0.63-0.63-0.63-1.66,0-2.3c0.63-0.63,1.66-0.63,2.3,0l3.77,3.77
				c0.31,0.31,0.48,0.72,0.48,1.15l0.01,24.81c0,0.43-0.17,0.84-0.48,1.15l-3.79,3.79c-0.63,0.63-1.66,0.63-2.3,0
				c-0.63-0.63-0.64-1.66,0-2.3l3.31-3.31l0-6.76c-1.45-0.37-3.17-0.77-4.95-1.1C34.37,56.59,33.34,56.42,33.68,55.28z"/>
			<path class="st0" d="M29.19,48.91c-1.03-1.03-2.41-1.6-3.87-1.6c-1.46,0-2.83,0.57-3.86,1.6c-1.03,1.03-1.6,2.4-1.6,3.86
				c0,1.46,0.57,2.83,1.6,3.87c1.03,1.03,2.41,1.6,3.87,1.6c1.46,0,2.83-0.57,3.86-1.6c1.03-1.03,1.6-2.4,1.6-3.86
				C30.79,51.32,30.22,49.94,29.19,48.91z"/>
			<path class="st0" d="M47.97,51.76c-1.02,0-1.85-0.83-1.85-1.85l0-2.56c0-1.02,0.83-1.85,1.85-1.85l43.7,0.02
				c1.02,0,2.49,0.53,3.27,1.19l5.85,4.87c0.78,0.65,0.78,1.72,0,2.37l-5.84,4.86c-0.78,0.65-2.25,1.18-3.27,1.18l-43.71-0.02
				c-1.02,0-1.85-0.83-1.85-1.85l0-2.56c0-1.02,0.83-1.85,1.85-1.85l36.6,0.02c0.54,0,0.98-0.44,0.97-0.97
				c0-0.54-0.44-0.97-0.98-0.98L47.97,51.76z"/>
		</g>
	</g>
	<text transform="matrix(1.0799 0 0 1 48.9113 56.184)" class="st1 st2 st3">SOCIALITE</text>
</g>
<rect x="34.03" y="51.88" class="st0" width="59.66" height="1.76"/>
</svg>
